# xmcd
#
# Track frame offsets: 
#        150
#        14881
#        37129
#        51725
#        70739
#        93813
#        115059
#        138215
#        158858
#        179788
#        207742
#        221189
#        238909
#        263270
#        283153
#        306952
#        322542
#
# Disc length: 4575 seconds
#
# Revision: 0
# Processed by: cddbd v1.5.2PL0 Copyright (c) Steve Scherf et al.
# Submitted via: ExactAudioCopy v0.95b4
#
DISCID=0911dd11
DTITLE=Eric Clapton  - Complete Clapton - Disc 2  FLAC
DYEAR=1900
DGENRE=
TTITLE0=I've Got A Rock 'N' Roll Heart
TTITLE1=She's Waiting
TTITLE2=Forever Man
TTITLE3=It's In The Way That You Use It
TTITLE4=Miss You
TTITLE5=Pretending
TTITLE6=Bad Love
TTITLE7=Tears In Heaven
TTITLE8=Layla (Unplugged)
TTITLE9=Running On Faith (Unplugged)
TTITLE10=Motherless Child
TTITLE11=Change The World
TTITLE12=My Father's Eyes
TTITLE13=Riding With The King with B.B. King
TTITLE14=Sweet Home Chicago
TTITLE15=If I Had Possession Over Judgement Day
TTITLE16=Ride The River with J.J. Cale
EXTD=
EXTT0=
EXTT1=
EXTT2=
EXTT3=
EXTT4=
EXTT5=
EXTT6=
EXTT7=
EXTT8=
EXTT9=
EXTT10=
EXTT11=
EXTT12=
EXTT13=
EXTT14=
EXTT15=
EXTT16=
PLAYORDER=
